<svg width="80" height="80" viewBox="0 0 80 80" fill="none" xmlns="http://www.w3.org/2000/svg">
<path d="M40 75C39.7261 74.9975 39.4597 74.9101 39.2375 74.75C38.15 73.9125 12.5 54.125 12.5 32.5C12.5 25.2065 15.3973 18.2118 20.5546 13.0546C25.7118 7.89731 32.7065 5 40 5C47.2935 5 54.2882 7.89731 59.4454 13.0546C64.6027 18.2118 67.5 25.2065 67.5 32.5C67.5 54.125 41.85 73.9125 40.7625 74.75C40.5403 74.9101 40.2739 74.9975 40 75ZM40 7.5C33.3696 7.5 27.0107 10.1339 22.3223 14.8223C17.6339 19.5107 15 25.8696 15 32.5C15 50.8875 35.7375 68.75 40 72.15C44.2625 68.75 65 50.875 65 32.5C65 25.8696 62.3661 19.5107 57.6777 14.8223C52.9893 10.1339 46.6304 7.5 40 7.5Z" fill="url(#paint0_linear_16_2160)"/>
<path d="M31.525 45.6125C31.2602 45.6134 31.002 45.5303 30.7875 45.375C30.6119 45.248 30.4723 45.0775 30.3824 44.8803C30.2926 44.6831 30.2556 44.4659 30.275 44.25L31.1 35.5L25.2875 28.975C25.143 28.8123 25.0435 28.6146 24.9988 28.4017C24.9541 28.1887 24.9658 27.9677 25.0327 27.7606C25.0997 27.5535 25.2195 27.3675 25.3804 27.221C25.5412 27.0744 25.7376 26.9724 25.95 26.925L34.4875 25L38.9 17.5C39.0091 17.3111 39.1657 17.154 39.3543 17.0443C39.5429 16.9347 39.7569 16.8763 39.975 16.875C40.1919 16.875 40.4051 16.9315 40.5936 17.0389C40.7821 17.1463 40.9394 17.3009 41.05 17.4875L45.5 24.9875L54.0375 26.8625C54.2501 26.9077 54.4472 27.0076 54.6095 27.1523C54.7717 27.297 54.8934 27.4814 54.9625 27.6875C55.0368 27.8991 55.0528 28.1268 55.0088 28.3468C54.9648 28.5667 54.8625 28.7707 54.7125 28.9375L48.925 35.5L49.8 44.25C49.8217 44.4679 49.7857 44.6876 49.6958 44.8873C49.6059 45.0869 49.4651 45.2594 49.2875 45.3875C49.1099 45.5188 48.9006 45.6007 48.681 45.6249C48.4615 45.649 48.2394 45.6146 48.0375 45.525L40 42L31.9875 45.5125C31.8403 45.5723 31.6838 45.6061 31.525 45.6125ZM28.575 28.9375L33.3375 34.2875C33.4522 34.4158 33.5391 34.5664 33.5929 34.7299C33.6467 34.8934 33.6661 35.0662 33.65 35.2375L32.975 42.3625L39.525 39.4875C39.6827 39.4187 39.8529 39.3831 40.025 39.3831C40.1971 39.3831 40.3673 39.4187 40.525 39.4875L47.1 42.3375L46.3875 35.2C46.3697 35.0295 46.3872 34.8572 46.4388 34.6938C46.4904 34.5304 46.575 34.3793 46.6875 34.25L51.425 28.8875L44.4375 27.35C44.2699 27.3149 44.1113 27.2458 43.9715 27.1469C43.8318 27.048 43.7138 26.9214 43.625 26.775L40 20.6125L36.375 26.7875C36.2888 26.9349 36.1734 27.063 36.0358 27.1641C35.8982 27.2651 35.7414 27.3369 35.575 27.375L28.575 28.9375Z" fill="url(#paint1_linear_16_2160)"/>
<defs>
<linearGradient id="paint0_linear_16_2160" x1="40" y1="5" x2="40" y2="75" gradientUnits="userSpaceOnUse">
<stop stop-color="#66FCF1"/>
<stop offset="1" stop-color="#5DE856"/>
</linearGradient>
<linearGradient id="paint1_linear_16_2160" x1="40.0026" y1="16.875" x2="40.0026" y2="45.6324" gradientUnits="userSpaceOnUse">
<stop stop-color="#66FCF1"/>
<stop offset="1" stop-color="#5DE856"/>
</linearGradient>
</defs>
</svg>
