<svg width="56" height="70" viewBox="0 0 56 70" fill="none" xmlns="http://www.w3.org/2000/svg">
<path d="M28 70C27.7261 69.9975 27.4597 69.9101 27.2375 69.75C26.15 68.9125 0.5 49.125 0.5 27.5C0.5 20.2065 3.39731 13.2118 8.55456 8.05456C13.7118 2.89731 20.7065 0 28 0C35.2935 0 42.2882 2.89731 47.4454 8.05456C52.6027 13.2118 55.5 20.2065 55.5 27.5C55.5 49.125 29.85 68.9125 28.7625 69.75C28.5403 69.9101 28.2739 69.9975 28 70ZM28 2.5C21.3696 2.5 15.0107 5.13392 10.3223 9.82233C5.63392 14.5107 3 20.8696 3 27.5C3 45.8875 23.7375 63.75 28 67.15C32.2625 63.75 53 45.875 53 27.5C53 20.8696 50.3661 14.5107 45.6777 9.82233C40.9893 5.13392 34.6304 2.5 28 2.5Z" fill="url(#paint0_linear_16_2161)"/>
<path d="M19.525 40.6125C19.2602 40.6134 19.002 40.5303 18.7875 40.375C18.6119 40.248 18.4723 40.0775 18.3824 39.8803C18.2926 39.6831 18.2556 39.4659 18.275 39.25L19.1 30.5L13.2875 23.975C13.143 23.8123 13.0435 23.6146 12.9988 23.4017C12.9541 23.1887 12.9658 22.9677 13.0327 22.7606C13.0997 22.5535 13.2195 22.3675 13.3804 22.221C13.5412 22.0744 13.7376 21.9724 13.95 21.925L22.4875 20L26.9 12.5C27.0091 12.3111 27.1657 12.154 27.3543 12.0443C27.5429 11.9347 27.7569 11.8763 27.975 11.875C28.1919 11.875 28.4051 11.9315 28.5936 12.0389C28.7821 12.1463 28.9394 12.3009 29.05 12.4875L33.5 19.9875L42.0375 21.8625C42.2501 21.9077 42.4472 22.0076 42.6095 22.1523C42.7717 22.297 42.8934 22.4814 42.9625 22.6875C43.0368 22.8991 43.0528 23.1268 43.0088 23.3468C42.9648 23.5667 42.8625 23.7707 42.7125 23.9375L36.925 30.5L37.8 39.25C37.8217 39.4679 37.7857 39.6876 37.6958 39.8873C37.6059 40.0869 37.4651 40.2594 37.2875 40.3875C37.1099 40.5188 36.9006 40.6007 36.681 40.6249C36.4615 40.649 36.2394 40.6146 36.0375 40.525L28 37L19.9875 40.5125C19.8403 40.5723 19.6838 40.6061 19.525 40.6125ZM16.575 23.9375L21.3375 29.2875C21.4522 29.4158 21.5391 29.5664 21.5929 29.7299C21.6467 29.8934 21.6661 30.0662 21.65 30.2375L20.975 37.3625L27.525 34.4875C27.6827 34.4187 27.8529 34.3831 28.025 34.3831C28.1971 34.3831 28.3673 34.4187 28.525 34.4875L35.1 37.3375L34.3875 30.2C34.3697 30.0295 34.3872 29.8572 34.4388 29.6938C34.4904 29.5304 34.575 29.3793 34.6875 29.25L39.425 23.8875L32.4375 22.35C32.2699 22.3149 32.1113 22.2458 31.9715 22.1469C31.8318 22.048 31.7138 21.9214 31.625 21.775L28 15.6125L24.375 21.7875C24.2888 21.9349 24.1734 22.063 24.0358 22.1641C23.8982 22.2651 23.7414 22.3369 23.575 22.375L16.575 23.9375Z" fill="url(#paint1_linear_16_2161)"/>
<defs>
<linearGradient id="paint0_linear_16_2161" x1="28" y1="0" x2="28" y2="70" gradientUnits="userSpaceOnUse">
<stop stop-color="#66FCF1"/>
<stop offset="1" stop-color="#5DE856"/>
</linearGradient>
<linearGradient id="paint1_linear_16_2161" x1="28.0026" y1="11.875" x2="28.0026" y2="40.6324" gradientUnits="userSpaceOnUse">
<stop stop-color="#66FCF1"/>
<stop offset="1" stop-color="#5DE856"/>
</linearGradient>
</defs>
</svg>
