<svg width="98" height="98" viewBox="0 0 98 98" fill="none" xmlns="http://www.w3.org/2000/svg">
<path d="M96.3667 35.9333H78.4V21.2333C78.4 21.2162 78.3979 21.1996 78.3975 21.1825C78.3967 21.1613 78.3958 21.1401 78.3943 21.1188C78.3897 21.0532 78.3822 20.9883 78.3701 20.9251C78.3694 20.9209 78.369 20.9167 78.3682 20.9125C78.3539 20.8405 78.3338 20.771 78.3104 20.7029C78.3062 20.6904 78.3014 20.6784 78.297 20.6661C78.2723 20.5993 78.2444 20.5343 78.2115 20.472C78.2105 20.4703 78.2099 20.4686 78.209 20.4669C78.1741 20.4014 78.1341 20.3392 78.0909 20.2795C78.0834 20.2692 78.0756 20.2588 78.0677 20.2487C78.0206 20.1867 77.9705 20.1273 77.9154 20.0726L58.328 0.485215C58.2733 0.429707 58.2135 0.379367 58.1513 0.332281C58.1414 0.324625 58.1314 0.31716 58.1213 0.309887C58.061 0.266438 57.9984 0.226051 57.9324 0.191023C57.9322 0.190832 57.932 0.190832 57.9316 0.190641C57.8671 0.156379 57.7995 0.127477 57.73 0.10202C57.7203 0.0983828 57.7107 0.0947461 57.7009 0.0913008C57.5652 0.0444063 57.4217 0.0151211 57.2724 0.00535938C57.2573 0.00440234 57.2421 0.00363672 57.227 0.0030625C57.2071 0.00229687 57.1872 0 57.1667 0H1.63327C0.730023 0 0 0.731746 0 1.63327V96.3665C0 97.2683 0.730023 98 1.63327 98H76.7665C77.6698 98 78.3998 97.2683 78.3998 96.3667V78.4H96.3665C97.2698 78.4 97.9998 77.6683 97.9998 76.7667V37.5667C98 36.665 97.27 35.9333 96.3667 35.9333ZM58.8 5.57624L72.8238 19.6H58.8V5.57624ZM75.1333 94.7333H3.26673V3.26673H55.5335V21.2335C55.5335 22.135 56.2635 22.8667 57.1667 22.8667H75.1335V35.9335H26.1335C25.2302 35.9335 24.5002 36.6652 24.5002 37.5667V76.7667C24.5002 77.6683 25.2302 78.4 26.1335 78.4H75.1335V94.7333H75.1333ZM94.7333 75.1333H27.7667V39.2H94.7335L94.7333 75.1333Z" fill="url(#paint0_linear_16_2305)"/>
<path d="M45.7319 45.7333C48.3599 45.7333 50.8312 46.6006 52.8794 48.2406C53.5867 48.8073 54.6124 48.693 55.1742 47.9873C55.7394 47.2833 55.6267 46.2561 54.921 45.6926C52.3272 43.6118 49.0622 42.4668 45.7317 42.4668C37.6255 42.4668 31.0317 49.0623 31.0317 57.1668C31.0317 65.2713 37.6255 71.8668 45.7317 71.8668C49.062 71.8668 52.3272 70.7218 54.921 68.641C55.6265 68.0775 55.7392 67.0502 55.1742 66.3463C54.6124 65.644 53.5817 65.5295 52.8794 66.093C50.8312 67.733 48.3599 68.6003 45.7319 68.6003C39.4289 68.6003 34.2987 63.4715 34.2987 57.167C34.2987 50.8624 39.4289 45.7333 45.7319 45.7333Z" fill="url(#paint1_linear_16_2305)"/>
<path d="M71.8668 55.5333H66.9668V50.6333C66.9668 49.7317 66.2368 49 65.3335 49C64.4303 49 63.7003 49.7317 63.7003 50.6333V55.5333H58.8003C57.897 55.5333 57.167 56.265 57.167 57.1665C57.167 58.0681 57.897 58.7998 58.8003 58.7998H63.7003V63.6998C63.7003 64.6013 64.4303 65.3331 65.3335 65.3331C66.2368 65.3331 66.9668 64.6013 66.9668 63.6998V58.7998H71.8668C72.77 58.7998 73.5001 58.0681 73.5001 57.1665C73.5001 56.265 72.77 55.5333 71.8668 55.5333Z" fill="url(#paint2_linear_16_2305)"/>
<path d="M76.7666 55.5333C75.8633 55.5333 75.1333 56.265 75.1333 57.1665C75.1333 58.0681 75.8633 58.7998 76.7666 58.7998H81.6666V63.6998C81.6666 64.6013 82.3966 65.3331 83.2998 65.3331C84.2031 65.3331 84.9331 64.6013 84.9331 63.6998V58.7998H89.8331C90.7364 58.7998 91.4664 58.0681 91.4664 57.1665C91.4664 56.265 90.7364 55.5333 89.8331 55.5333H84.9331V50.6333C84.9331 49.7317 84.2031 49 83.2998 49C82.3966 49 81.6666 49.7317 81.6666 50.6333V55.5333H76.7666Z" fill="url(#paint3_linear_16_2305)"/>
<defs>
<linearGradient id="paint0_linear_16_2305" x1="48.9999" y1="0" x2="48.9999" y2="98" gradientUnits="userSpaceOnUse">
<stop stop-color="#66FCF1"/>
<stop offset="1" stop-color="#5DE856"/>
</linearGradient>
<linearGradient id="paint1_linear_16_2305" x1="43.2829" y1="42.4668" x2="43.2829" y2="71.8668" gradientUnits="userSpaceOnUse">
<stop stop-color="#66FCF1"/>
<stop offset="1" stop-color="#5DE856"/>
</linearGradient>
<linearGradient id="paint2_linear_16_2305" x1="65.3335" y1="49" x2="65.3335" y2="65.3331" gradientUnits="userSpaceOnUse">
<stop stop-color="#66FCF1"/>
<stop offset="1" stop-color="#5DE856"/>
</linearGradient>
<linearGradient id="paint3_linear_16_2305" x1="83.2998" y1="49" x2="83.2998" y2="65.3331" gradientUnits="userSpaceOnUse">
<stop stop-color="#66FCF1"/>
<stop offset="1" stop-color="#5DE856"/>
</linearGradient>
</defs>
</svg>
