<svg width="67" height="96" viewBox="0 0 67 96" fill="none" xmlns="http://www.w3.org/2000/svg">
<path d="M58.6181 32.9812C63.5081 29.7675 66.7425 24.2344 66.7425 17.9606C66.7425 8.05688 58.6838 0 48.78 0H17.9625C8.05875 0 0 8.05688 0 17.9606C0 24.2344 3.23438 29.7675 8.12438 32.9812C3.23438 36.1931 0 41.7262 0 48C0 54.2738 3.23438 59.8069 8.12438 63.0206C3.23438 66.2306 0 71.7656 0 78.0394C0 87.9431 8.10188 96 18.0581 96C28.1231 96 36.3131 87.855 36.3131 77.8444V61.2806C39.5044 64.1888 43.7438 65.9606 48.39 65.9606H48.78C58.6838 65.9606 66.7425 57.9038 66.7425 48C66.7425 41.7262 63.5081 36.1931 58.6181 32.9812ZM36.3131 5.88375H48.78C55.44 5.88375 60.8588 11.3006 60.8588 17.9606C60.8588 24.6206 55.44 30.0394 48.78 30.0394H36.3131V5.88375ZM5.88375 17.9606C5.88375 11.3006 11.3025 5.88375 17.9625 5.88375H30.4294V30.0394H17.9625C11.3025 30.0394 5.88375 24.6206 5.88375 17.9606ZM5.88375 48C5.88375 41.34 11.3025 35.9231 17.9625 35.9231H30.4294V60.0788H17.8856C11.2613 60.0375 5.88375 54.6338 5.88375 48ZM30.4294 77.8444C30.4294 84.6113 24.8794 90.1162 18.0581 90.1162C11.3456 90.1162 5.88375 84.6994 5.88375 78.0394C5.88375 71.3794 11.3025 65.9606 17.9625 65.9606H30.4294V77.8444ZM48.78 60.0788H48.39C41.73 60.0788 36.3131 54.66 36.3131 48C36.3131 41.34 41.73 35.9231 48.39 35.9231H48.78C55.44 35.9231 60.8588 41.34 60.8588 48C60.8588 54.66 55.44 60.0788 48.78 60.0788Z" fill="url(#paint0_linear_16_2365)"/>
<path d="M17.9626 60.0769C17.9364 60.0769 17.912 60.0769 17.8857 60.0788H30.4295V60.0769H17.9626Z" fill="url(#paint1_linear_16_2365)"/>
<defs>
<linearGradient id="paint0_linear_16_2365" x1="33.3713" y1="0" x2="33.3713" y2="96" gradientUnits="userSpaceOnUse">
<stop stop-color="#66FCF1"/>
<stop offset="1" stop-color="#5DE856"/>
</linearGradient>
<linearGradient id="paint1_linear_16_2365" x1="24.1576" y1="60.0769" x2="24.1576" y2="60.0788" gradientUnits="userSpaceOnUse">
<stop stop-color="#66FCF1"/>
<stop offset="1" stop-color="#5DE856"/>
</linearGradient>
</defs>
</svg>
