<svg width="98" height="98" viewBox="0 0 98 98" fill="none" xmlns="http://www.w3.org/2000/svg">
<g clip-path="url(#clip0_16_2370)">
<path d="M35.0814 76.6956C41.4795 76.6956 46.6803 71.9191 46.6803 66.0435V49.0001C46.6803 47.8241 45.641 46.8696 44.3605 46.8696H30.4416C29.1611 46.8696 28.1217 47.8241 28.1217 49.0001C28.1217 50.1761 29.1613 51.1304 30.4418 51.1304H42.0408V66.0435C42.0408 69.5673 38.9184 72.4348 35.0814 72.4348C31.2443 72.4348 28.122 69.5673 28.122 66.0435C28.122 64.8675 27.0826 63.913 25.8021 63.913C24.5215 63.913 23.4824 64.8675 23.4824 66.0435C23.4824 71.9191 28.6835 76.6956 35.0814 76.6956Z" fill="url(#paint0_linear_16_2370)"/>
<path d="M66.4635 72.4348H58.2792C57.0033 72.4348 55.9594 71.4761 55.9594 70.3043C55.9594 69.1283 54.92 68.1738 53.6395 68.1738C52.3589 68.1738 51.3198 69.1283 51.3198 70.3043C51.3198 73.8281 54.4422 76.6956 58.2792 76.6956H66.4635C70.9036 76.6956 74.5179 73.3763 74.5179 69.2987C74.5179 66.4823 72.8105 63.9469 70.0639 62.6815L57.8478 57.0741C56.6831 56.5372 55.9594 55.4635 55.9594 54.2661C55.9594 52.5363 57.4904 51.1302 59.374 51.1302H67.5583C68.8343 51.1302 69.8782 52.0889 69.8782 53.2607C69.8782 54.4367 70.9175 55.3912 72.1981 55.3912C73.4786 55.3912 74.5179 54.4367 74.5179 53.2607C74.5179 49.7369 71.3956 46.8694 67.5585 46.8694H59.3743C54.9342 46.8694 51.3198 50.1887 51.3198 54.2663C51.3198 57.0827 53.0273 59.618 55.7739 60.8835L67.99 66.4909C69.1546 67.0277 69.8784 68.1015 69.8784 69.2989C69.8782 71.0287 68.3471 72.4348 66.4635 72.4348Z" fill="url(#paint1_linear_16_2370)"/>
<path d="M95.3964 38.3478H88.4369V2.1305C88.4369 0.954501 87.3976 0 86.1171 0H35.0813C34.9745 0 34.8771 0.0425421 34.7751 0.0553247C34.6822 0.0681073 34.5987 0.0808899 34.506 0.102261C34.1117 0.200327 33.7359 0.353719 33.4388 0.622153L10.2409 21.9264C9.9532 22.1948 9.78617 22.5357 9.67961 22.8978C9.65634 22.9873 9.63785 23.064 9.62393 23.1577C9.61002 23.2514 9.56369 23.3366 9.56369 23.4347V38.3478H2.60406C1.32353 38.3478 0.28418 39.3023 0.28418 40.4783V83.0869C0.28418 84.2629 1.32353 85.2174 2.60406 85.2174H9.56347V95.8695C9.56347 97.0455 10.6028 98 11.8834 98H86.1171C87.3976 98 88.4369 97.0455 88.4369 95.8695V85.2174H95.3964C96.6769 85.2174 97.7162 84.2629 97.7162 83.0869V40.4783C97.716 39.3023 96.6769 38.3478 95.3964 38.3478ZM32.7616 7.2733V21.3044H17.4833L32.7616 7.2733ZM14.203 25.5652H35.0813C36.3618 25.5652 37.4011 24.6107 37.4011 23.4347V4.2608H83.7972V38.3478H14.203V25.5652ZM83.7972 93.739H14.203V85.2172H83.7972V93.739ZM93.0765 80.9564H4.92394V42.6086H93.0765V80.9564Z" fill="url(#paint2_linear_16_2370)"/>
</g>
<defs>
<linearGradient id="paint0_linear_16_2370" x1="35.0814" y1="46.8696" x2="35.0814" y2="76.6956" gradientUnits="userSpaceOnUse">
<stop stop-color="#66FCF1"/>
<stop offset="1" stop-color="#5DE856"/>
</linearGradient>
<linearGradient id="paint1_linear_16_2370" x1="62.9189" y1="46.8694" x2="62.9189" y2="76.6956" gradientUnits="userSpaceOnUse">
<stop stop-color="#66FCF1"/>
<stop offset="1" stop-color="#5DE856"/>
</linearGradient>
<linearGradient id="paint2_linear_16_2370" x1="49.0002" y1="0" x2="49.0002" y2="98" gradientUnits="userSpaceOnUse">
<stop stop-color="#66FCF1"/>
<stop offset="1" stop-color="#5DE856"/>
</linearGradient>
<clipPath id="clip0_16_2370">
<rect width="98" height="98" fill="white"/>
</clipPath>
</defs>
</svg>
