<svg width="32" height="28" viewBox="0 0 32 28" fill="none" xmlns="http://www.w3.org/2000/svg">
<path d="M31.5059 1.17871C31.115 0.700684 30.5296 0.4375 29.8572 0.4375C29.4917 0.4375 29.1045 0.514404 28.7066 0.666504L1.61919 11.0066C0.181691 11.5552 -0.0119126 12.3784 0.000538505 12.8203C0.0129897 13.2622 0.25298 14.0732 1.71929 14.5398C1.72808 14.5425 1.73687 14.5452 1.74566 14.5476L7.36431 16.1555L10.4029 24.8445C10.8172 26.0291 11.7471 26.7649 12.8301 26.7649C13.513 26.7649 14.1846 26.4788 14.7725 25.9377L18.2478 22.7378L23.2886 26.7966C23.2891 26.7971 23.2898 26.7974 23.2903 26.7979L23.3382 26.8364C23.3426 26.8398 23.3472 26.8435 23.3516 26.8469C23.9119 27.2815 24.5235 27.511 25.1209 27.5112H25.1211C26.2884 27.5112 27.2178 26.6472 27.4886 25.3103L31.9268 3.39526C32.105 2.51562 31.9556 1.72852 31.5059 1.17871ZM9.24395 15.8501L20.084 10.3123L13.3343 17.4844C13.2237 17.6018 13.1453 17.7456 13.1067 17.9021L11.8052 23.1741L9.24395 15.8501ZM13.5022 24.5583C13.4573 24.5996 13.4122 24.6365 13.367 24.6704L14.5745 19.7798L16.771 21.5486L13.5022 24.5583ZM30.0892 3.02295L25.6509 24.9382C25.6082 25.1479 25.4717 25.636 25.1209 25.636C24.9476 25.636 24.7298 25.5415 24.5069 25.3699L18.795 20.7708C18.7942 20.77 18.7933 20.7693 18.7923 20.7688L15.3936 18.032L25.1546 7.66016C25.4671 7.32812 25.4954 6.81958 25.2217 6.45483C24.9478 6.09009 24.4515 5.97534 24.0455 6.18286L7.99126 14.3845L2.29619 12.7551L29.3753 2.41821C29.604 2.33081 29.7637 2.3125 29.8572 2.3125C29.9146 2.3125 30.0166 2.31934 30.0545 2.36597C30.1043 2.42676 30.1678 2.63403 30.0892 3.02295Z" fill="url(#paint0_linear_16_3008)"/>
<defs>
<linearGradient id="paint0_linear_16_3008" x1="0" y1="13.9744" x2="32.0001" y2="13.9744" gradientUnits="userSpaceOnUse">
<stop stop-color="#5DE856"/>
<stop offset="1" stop-color="#00B1D2"/>
</linearGradient>
</defs>
</svg>
