<svg width="28" height="32" viewBox="0 0 28 32" fill="none" xmlns="http://www.w3.org/2000/svg">
<path d="M27.0541 7.02919C23.6952 7.02919 20.9626 4.29644 20.9626 0.9375C20.9626 0.41975 20.5428 0 20.0251 0H15.0042C14.4864 0 14.0667 0.41975 14.0667 0.9375V21.5229C14.0667 23.4976 12.4601 25.1041 10.4854 25.1041C8.51068 25.1041 6.90418 23.4976 6.90418 21.5229C6.90418 19.5482 8.51068 17.9416 10.4854 17.9416C11.0031 17.9416 11.4229 17.5219 11.4229 17.0041V11.9832C11.4229 11.4655 11.0031 11.0457 10.4854 11.0457C4.7083 11.0457 0.00830078 15.7458 0.00830078 21.5229C0.00836328 27.3 4.7083 32 10.4854 32C16.2626 32 20.9626 27.3 20.9626 21.5229V12.4111C22.8286 13.4057 24.9047 13.9251 27.0542 13.9251C27.5719 13.9251 27.9917 13.5053 27.9917 12.9876V7.96669C27.9916 7.44894 27.5719 7.02919 27.0541 7.02919ZM26.1166 12.0112C24.1152 11.8448 22.2147 11.1456 20.5726 9.96431C20.2871 9.75894 19.9106 9.73063 19.5975 9.891C19.2845 10.0514 19.0876 10.3736 19.0876 10.7253V21.5229C19.0876 26.2661 15.2286 30.125 10.4854 30.125C5.74218 30.125 1.8833 26.2661 1.8833 21.5229C1.8833 17.0964 5.24399 13.4401 9.54786 12.9715V16.1472C6.9843 16.5929 5.02918 18.8339 5.02918 21.5229C5.02918 24.5315 7.4768 26.9791 10.4854 26.9791C13.494 26.9791 15.9417 24.5315 15.9417 21.5229V1.875H19.1424C19.5716 5.52 22.4717 8.42006 26.1166 8.84931V12.0112H26.1166Z" fill="url(#paint0_linear_16_2997)"/>
<defs>
<linearGradient id="paint0_linear_16_2997" x1="0.00830078" y1="16" x2="27.9917" y2="16" gradientUnits="userSpaceOnUse">
<stop stop-color="#5DE856"/>
<stop offset="1" stop-color="#00B1D2"/>
</linearGradient>
</defs>
</svg>
