<svg width="32" height="20" viewBox="0 0 32 20" fill="none" xmlns="http://www.w3.org/2000/svg">
<path d="M16.1933 20C20.8227 20 19.172 17.0693 19.5293 16.2267C19.524 15.5973 19.5187 14.992 19.54 14.624C19.8333 14.7067 20.5253 15.0573 21.9547 16.4467C24.1613 18.6733 24.7253 20 26.508 20H29.7893C30.8293 20 31.3707 19.5693 31.6413 19.208C31.9027 18.8587 32.1587 18.2453 31.8787 17.2907C31.1467 14.992 26.8773 11.0227 26.612 10.604C26.652 10.5267 26.716 10.424 26.7493 10.3707H26.7467C27.5893 9.25733 30.8053 4.43867 31.2787 2.51067C31.28 2.508 31.2813 2.504 31.2813 2.5C31.5373 1.62 31.3027 1.04933 31.06 0.726667C30.6947 0.244 30.1133 0 29.328 0H26.0467C24.948 0 24.1147 0.553333 23.6933 1.56267C22.988 3.356 21.0067 7.044 19.5213 8.34933C19.476 6.5 19.5067 5.088 19.5307 4.03867C19.5787 1.992 19.7333 0 17.6093 0H12.452C11.1213 0 9.848 1.45333 11.2267 3.17867C12.432 4.69067 11.66 5.53333 11.92 9.728C10.9067 8.64133 9.104 5.70667 7.82933 1.956C7.472 0.941333 6.93067 0.00133324 5.40667 0.00133324H2.12533C0.794667 0.00133324 0 0.726666 0 1.94133C0 4.66933 6.03867 20 16.1933 20ZM5.40667 2.00133C5.696 2.00133 5.72533 2.00133 5.94 2.61067C7.24533 6.45467 10.1733 12.1427 12.312 12.1427C13.9187 12.1427 13.9187 10.496 13.9187 9.876L13.9173 4.94C13.8293 3.30667 13.2347 2.49333 12.844 2L17.5213 2.00533C17.524 2.028 17.4947 7.46533 17.5347 8.78267C17.5347 10.6533 19.02 11.7253 21.3387 9.37867C23.7853 6.61733 25.4773 2.48933 25.5453 2.32133C25.6453 2.08133 25.732 2 26.0467 2H29.328H29.3413C29.34 2.004 29.34 2.008 29.3387 2.012C29.0387 3.412 26.0773 7.87333 25.0867 9.25867C25.0707 9.28 25.056 9.30267 25.0413 9.32533C24.6053 10.0373 24.2507 10.824 25.1013 11.9307C25.1787 12.024 25.3813 12.2427 25.6747 12.5467C26.5867 13.488 29.7147 16.7067 29.992 17.9867C29.808 18.016 29.608 17.9947 26.508 18.0013C25.848 18.0013 25.332 17.0147 23.3627 15.028C21.592 13.3053 20.4427 12.6013 19.396 12.6013C17.364 12.6013 17.512 14.2507 17.5307 16.2453C17.5373 18.408 17.524 17.724 17.5387 17.86C17.42 17.9067 17.08 18 16.1933 18C7.73333 18 2.224 4.572 2.012 2.00533C2.08533 1.99867 3.09467 2.00267 5.40667 2.00133Z" fill="url(#paint0_linear_16_2999)"/>
<defs>
<linearGradient id="paint0_linear_16_2999" x1="0" y1="10" x2="32.0004" y2="10" gradientUnits="userSpaceOnUse">
<stop stop-color="#5DE856"/>
<stop offset="1" stop-color="#00B1D2"/>
</linearGradient>
</defs>
</svg>
