<svg width="32" height="32" viewBox="0 0 32 32" fill="none" xmlns="http://www.w3.org/2000/svg">
<path d="M27.3118 4.96338H4.68818C2.10312 4.96338 0 7.06656 0 9.65156V22.3482C0 24.9333 2.10312 27.0364 4.68818 27.0364H27.3118C29.8969 27.0364 31.9999 24.9333 32 22.3482V9.65156C32 7.06656 29.8969 4.96338 27.3118 4.96338ZM30.8321 22.3482C30.8321 24.2892 29.2529 25.8684 27.3118 25.8684H4.68818C2.74706 25.8684 1.16794 24.2892 1.16794 22.3482V9.65156C1.16794 7.7105 2.74706 6.13131 4.68818 6.13131H27.3118C29.2529 6.13131 30.8321 7.7105 30.8321 9.65156V22.3482Z" fill="url(#paint0_linear_16_3000)"/>
<path d="M20.8681 15.5527L12.979 10.9979C12.7984 10.8936 12.5757 10.8936 12.395 10.9979C12.2144 11.1022 12.103 11.295 12.103 11.5036V20.6131C12.103 20.8217 12.2143 21.0145 12.395 21.1188C12.4853 21.171 12.5862 21.197 12.687 21.197C12.7878 21.197 12.8887 21.171 12.979 21.1188L20.8681 16.564C21.0487 16.4598 21.1601 16.2669 21.1601 16.0583C21.16 15.8498 21.0487 15.657 20.8681 15.5527ZM13.271 19.6016V12.5151L19.4081 16.0584L13.271 19.6016Z" fill="url(#paint1_linear_16_3000)"/>
<defs>
<linearGradient id="paint0_linear_16_3000" x1="0" y1="15.9999" x2="32" y2="15.9999" gradientUnits="userSpaceOnUse">
<stop stop-color="#5DE856"/>
<stop offset="1" stop-color="#00B1D2"/>
</linearGradient>
<linearGradient id="paint1_linear_16_3000" x1="12.103" y1="16.0583" x2="21.1601" y2="16.0583" gradientUnits="userSpaceOnUse">
<stop stop-color="#5DE856"/>
<stop offset="1" stop-color="#00B1D2"/>
</linearGradient>
</defs>
</svg>
