<svg width="353" height="444" viewBox="0 0 353 444" fill="none" xmlns="http://www.w3.org/2000/svg">
<path d="M63.9387 37.5582C64.0853 34.5956 63.7433 31.6061 62.9407 28.7104L70.1155 22.4172L65.8581 14.9737L56.9942 17.6689C56.8476 17.5017 56.722 17.3211 56.5684 17.154C54.4676 14.8534 52.0597 12.9876 49.4843 11.5363L50.3427 2.54798L42.107 0L37.5215 7.92494C34.3249 7.69087 31.1004 7.99181 27.9946 8.83446L22.3412 2.28046L14.7755 6.38673L17.1555 14.5658C16.988 14.7062 16.8135 14.8266 16.653 14.9737C14.3428 17.0536 12.4862 19.4345 11.0484 22.0026L1.97515 21.8956L0 30.2285L7.57967 33.7596C7.37029 37.0165 7.73321 40.3069 8.66148 43.4835L1.77277 49.8503L6.13492 57.2335L14.7127 54.3846C14.7824 54.4581 14.8383 54.545 14.9081 54.6186C16.974 56.8857 19.333 58.7249 21.8596 60.1695L21.7828 70.0739L30.1861 72L33.9969 63.8544C37.2423 64.0885 40.5087 63.7607 43.6634 62.8846L50.1125 69.6593L57.5176 65.2722L54.6421 56.9526C54.7049 56.8991 54.7678 56.8523 54.8306 56.7988C57.2175 54.6521 59.1159 52.1643 60.5746 49.4959L69.5781 50.1846L72 41.9722L63.9387 37.5582ZM49.1213 50.3184C41.1927 57.4476 28.7972 56.732 21.4827 48.7201C14.1683 40.7082 14.6708 28.3893 22.5994 21.2669C30.5281 14.1378 42.9236 14.8601 50.2381 22.8653C57.5525 30.8772 57.05 43.1893 49.1213 50.3184Z" fill="url(#paint0_linear_16_7113)" fill-opacity="0.1"/>
<path d="M344.939 409.558C345.085 406.596 344.743 403.606 343.941 400.71L351.116 394.417L346.858 386.974L337.994 389.669C337.848 389.502 337.722 389.321 337.568 389.154C335.468 386.853 333.06 384.988 330.484 383.536L331.343 374.548L323.107 372L318.521 379.925C315.325 379.691 312.1 379.992 308.995 380.834L303.341 374.28L295.775 378.387L298.155 386.566C297.988 386.706 297.813 386.827 297.653 386.974C295.343 389.054 293.486 391.434 292.048 394.003L282.975 393.896L281 402.228L288.58 405.76C288.37 409.017 288.733 412.307 289.661 415.484L282.773 421.85L287.135 429.234L295.713 426.385C295.782 426.458 295.838 426.545 295.908 426.619C297.974 428.886 300.333 430.725 302.86 432.169L302.783 442.074L311.186 444L314.997 435.854C318.242 436.088 321.509 435.761 324.663 434.885L331.112 441.659L338.518 437.272L335.642 428.953C335.705 428.899 335.768 428.852 335.831 428.799C338.218 426.652 340.116 424.164 341.575 421.496L350.578 422.185L353 413.972L344.939 409.558ZM330.121 422.318C322.193 429.448 309.797 428.732 302.483 420.72C295.168 412.708 295.671 400.389 303.599 393.267C311.528 386.138 323.924 386.86 331.238 394.865C338.553 402.877 338.05 415.189 330.121 422.318Z" fill="url(#paint1_linear_16_7113)" fill-opacity="0.1"/>
<defs>
<linearGradient id="paint0_linear_16_7113" x1="-1.17931" y1="3.35214e-06" x2="81.715" y2="13.8487" gradientUnits="userSpaceOnUse">
<stop stop-color="#66FCF1"/>
<stop offset="1" stop-color="#5DE856"/>
</linearGradient>
<linearGradient id="paint1_linear_16_7113" x1="279.821" y1="372" x2="362.715" y2="385.849" gradientUnits="userSpaceOnUse">
<stop stop-color="#66FCF1"/>
<stop offset="1" stop-color="#5DE856"/>
</linearGradient>
</defs>
</svg>
