<svg width="220" height="60" viewBox="0 0 220 60" fill="none" xmlns="http://www.w3.org/2000/svg">
<rect x="1" y="1" width="218" height="58" rx="9" stroke="url(#paint0_linear_16_7081)" stroke-width="2"/>
<path d="M49.58 35.62L50.42 33.72C51.02 34.1333 51.6733 34.4533 52.38 34.68C53.1 34.8933 53.8133 35.0067 54.52 35.02C55.2267 35.0333 55.8667 34.9533 56.44 34.78C57.0267 34.6067 57.4933 34.3467 57.84 34C58.1867 33.6533 58.36 33.22 58.36 32.7C58.36 32.0733 58.1 31.6067 57.58 31.3C57.0733 30.98 56.38 30.82 55.5 30.82H52.24V28.78H55.3C56.0867 28.78 56.6933 28.62 57.12 28.3C57.56 27.98 57.78 27.5467 57.78 27C57.78 26.5467 57.6333 26.1733 57.34 25.88C57.06 25.5867 56.6733 25.3667 56.18 25.22C55.7 25.0733 55.1533 25.0067 54.54 25.02C53.94 25.02 53.3133 25.1133 52.66 25.3C52.0067 25.4733 51.3867 25.7333 50.8 26.08L49.98 23.98C50.86 23.5133 51.78 23.1867 52.74 23C53.7133 22.8133 54.6533 22.76 55.56 22.84C56.4667 22.92 57.28 23.1267 58 23.46C58.7333 23.7933 59.32 24.2333 59.76 24.78C60.2 25.3133 60.42 25.9467 60.42 26.68C60.42 27.3467 60.24 27.94 59.88 28.46C59.5333 28.9667 59.0533 29.36 58.44 29.64C57.8267 29.92 57.1133 30.06 56.3 30.06L56.4 29.42C57.32 29.42 58.12 29.58 58.8 29.9C59.4933 30.2067 60.0267 30.6333 60.4 31.18C60.7867 31.7267 60.98 32.36 60.98 33.08C60.98 33.76 60.8067 34.3667 60.46 34.9C60.1133 35.42 59.64 35.86 59.04 36.22C58.44 36.5667 57.7533 36.8267 56.98 37C56.2067 37.16 55.3933 37.22 54.54 37.18C53.6867 37.14 52.8333 36.9933 51.98 36.74C51.14 36.4867 50.34 36.1133 49.58 35.62ZM70.1483 37V34.84L70.0083 34.38V30.6C70.0083 29.8667 69.7883 29.3 69.3483 28.9C68.9083 28.4867 68.2416 28.28 67.3483 28.28C66.7483 28.28 66.1549 28.3733 65.5683 28.56C64.9949 28.7467 64.5083 29.0067 64.1083 29.34L63.1283 27.52C63.7016 27.08 64.3816 26.7533 65.1683 26.54C65.9683 26.3133 66.7949 26.2 67.6483 26.2C69.1949 26.2 70.3883 26.5733 71.2283 27.32C72.0816 28.0533 72.5083 29.1933 72.5083 30.74V37H70.1483ZM66.7883 37.14C65.9883 37.14 65.2883 37.0067 64.6883 36.74C64.0883 36.46 63.6216 36.08 63.2883 35.6C62.9683 35.1067 62.8083 34.5533 62.8083 33.94C62.8083 33.34 62.9483 32.8 63.2283 32.32C63.5216 31.84 63.9949 31.46 64.6483 31.18C65.3016 30.9 66.1683 30.76 67.2483 30.76H70.3483V32.42H67.4283C66.5749 32.42 66.0016 32.56 65.7083 32.84C65.4149 33.1067 65.2683 33.44 65.2683 33.84C65.2683 34.2933 65.4483 34.6533 65.8083 34.92C66.1683 35.1867 66.6683 35.32 67.3083 35.32C67.9216 35.32 68.4683 35.18 68.9483 34.9C69.4416 34.62 69.7949 34.2067 70.0083 33.66L70.4283 35.16C70.1883 35.7867 69.7549 36.2733 69.1283 36.62C68.5149 36.9667 67.7349 37.14 66.7883 37.14ZM75.6019 37V26.32H85.8419V37H83.3619V27.86L83.9419 28.44H77.5219L78.1019 27.86V37H75.6019ZM89.2152 37V26.32H91.7152V33.36L97.6152 26.32H99.8952V37H97.3952V29.96L91.5152 37H89.2152ZM108.118 37.14C106.998 37.14 105.998 36.9067 105.118 36.44C104.251 35.96 103.571 35.3067 103.078 34.48C102.585 33.6533 102.338 32.7133 102.338 31.66C102.338 30.5933 102.585 29.6533 103.078 28.84C103.571 28.0133 104.251 27.3667 105.118 26.9C105.998 26.4333 106.998 26.2 108.118 26.2C109.158 26.2 110.071 26.4133 110.858 26.84C111.658 27.2533 112.265 27.8667 112.678 28.68L110.758 29.8C110.438 29.2933 110.045 28.92 109.578 28.68C109.125 28.44 108.631 28.32 108.098 28.32C107.485 28.32 106.931 28.4533 106.438 28.72C105.945 28.9867 105.558 29.3733 105.278 29.88C104.998 30.3733 104.858 30.9667 104.858 31.66C104.858 32.3533 104.998 32.9533 105.278 33.46C105.558 33.9533 105.945 34.3333 106.438 34.6C106.931 34.8667 107.485 35 108.098 35C108.631 35 109.125 34.88 109.578 34.64C110.045 34.4 110.438 34.0267 110.758 33.52L112.678 34.64C112.265 35.44 111.658 36.06 110.858 36.5C110.071 36.9267 109.158 37.14 108.118 37.14ZM121.359 37V34.84L121.219 34.38V30.6C121.219 29.8667 120.999 29.3 120.559 28.9C120.119 28.4867 119.453 28.28 118.559 28.28C117.959 28.28 117.366 28.3733 116.779 28.56C116.206 28.7467 115.719 29.0067 115.319 29.34L114.339 27.52C114.913 27.08 115.593 26.7533 116.379 26.54C117.179 26.3133 118.006 26.2 118.859 26.2C120.406 26.2 121.599 26.5733 122.439 27.32C123.293 28.0533 123.719 29.1933 123.719 30.74V37H121.359ZM117.999 37.14C117.199 37.14 116.499 37.0067 115.899 36.74C115.299 36.46 114.833 36.08 114.499 35.6C114.179 35.1067 114.019 34.5533 114.019 33.94C114.019 33.34 114.159 32.8 114.439 32.32C114.733 31.84 115.206 31.46 115.859 31.18C116.513 30.9 117.379 30.76 118.459 30.76H121.559V32.42H118.639C117.786 32.42 117.213 32.56 116.919 32.84C116.626 33.1067 116.479 33.44 116.479 33.84C116.479 34.2933 116.659 34.6533 117.019 34.92C117.379 35.1867 117.879 35.32 118.519 35.32C119.133 35.32 119.679 35.18 120.159 34.9C120.653 34.62 121.006 34.2067 121.219 33.66L121.639 35.16C121.399 35.7867 120.966 36.2733 120.339 36.62C119.726 36.9667 118.946 37.14 117.999 37.14ZM129.033 37V27.84L129.613 28.44H125.273V26.32H135.273V28.44H130.953L131.533 27.84V37H129.033ZM142.446 29.84C143.82 29.84 144.866 30.1467 145.586 30.76C146.306 31.3733 146.666 32.24 146.666 33.36C146.666 34.52 146.266 35.4267 145.466 36.08C144.666 36.72 143.54 37.0333 142.086 37.02L137.086 37V26.32H139.586V29.82L142.446 29.84ZM141.866 35.18C142.6 35.1933 143.16 35.04 143.546 34.72C143.933 34.4 144.126 33.9333 144.126 33.32C144.126 32.7067 143.933 32.2667 143.546 32C143.173 31.72 142.613 31.5733 141.866 31.56L139.586 31.54V35.16L141.866 35.18ZM153.724 37.14C152.604 37.14 151.604 36.9067 150.724 36.44C149.857 35.96 149.177 35.3067 148.684 34.48C148.19 33.6533 147.944 32.7133 147.944 31.66C147.944 30.5933 148.19 29.6533 148.684 28.84C149.177 28.0133 149.857 27.3667 150.724 26.9C151.604 26.4333 152.604 26.2 153.724 26.2C154.764 26.2 155.677 26.4133 156.464 26.84C157.264 27.2533 157.87 27.8667 158.284 28.68L156.364 29.8C156.044 29.2933 155.65 28.92 155.184 28.68C154.73 28.44 154.237 28.32 153.704 28.32C153.09 28.32 152.537 28.4533 152.044 28.72C151.55 28.9867 151.164 29.3733 150.884 29.88C150.604 30.3733 150.464 30.9667 150.464 31.66C150.464 32.3533 150.604 32.9533 150.884 33.46C151.164 33.9533 151.55 34.3333 152.044 34.6C152.537 34.8667 153.09 35 153.704 35C154.237 35 154.73 34.88 155.184 34.64C155.65 34.4 156.044 34.0267 156.364 33.52L158.284 34.64C157.87 35.44 157.264 36.06 156.464 36.5C155.677 36.9267 154.764 37.14 153.724 37.14ZM166.972 37V33.36L167.332 33.78H164.132C162.665 33.78 161.512 33.4733 160.672 32.86C159.845 32.2333 159.432 31.3333 159.432 30.16C159.432 28.9067 159.872 27.9533 160.752 27.3C161.645 26.6467 162.832 26.32 164.312 26.32H169.212V37H166.972ZM159.292 37L162.172 32.92H164.732L161.972 37H159.292ZM166.972 32.56V27.76L167.332 28.42H164.392C163.618 28.42 163.018 28.5667 162.592 28.86C162.178 29.14 161.972 29.6 161.972 30.24C161.972 31.44 162.752 32.04 164.312 32.04H167.332L166.972 32.56Z" fill="white"/>
<defs>
<linearGradient id="paint0_linear_16_7081" x1="-22" y1="-12.4" x2="236.594" y2="37.5761" gradientUnits="userSpaceOnUse">
<stop stop-color="#5DE856"/>
<stop offset="1" stop-color="#66FCF1" stop-opacity="0.8"/>
</linearGradient>
</defs>
</svg>
