<svg width="80" height="80" viewBox="0 0 80 80" fill="none" xmlns="http://www.w3.org/2000/svg">
<path d="M78.6667 24.4898H67.1403C64.9336 22.2886 53.8062 11.2668 46.6104 5.59253C46.2379 2.43398 44.0141 0 41.3328 0C38.6515 0 36.4278 2.43417 36.0552 5.59253C28.8594 11.267 17.732 22.2886 15.5253 24.4898H1.33326C0.595863 24.4898 0 25.2212 0 26.1223V78.3674C0 79.2686 0.596021 80 1.33326 80H78.6667C79.4027 80 80 79.2686 80 78.3674V26.1223C80.0002 25.2212 79.4027 24.4898 78.6667 24.4898ZM41.3328 3.26515C42.8035 3.26515 43.9995 4.72966 43.9995 6.53049C43.9995 8.33132 42.8035 9.79583 41.3328 9.79583C39.8621 9.79583 38.6661 8.33132 38.6661 6.53049C38.6661 4.72966 39.8621 3.26515 41.3328 3.26515ZM36.4572 9.17319C37.2874 11.4611 39.1595 13.0612 41.3328 13.0612C43.5061 13.0612 45.3782 11.4613 46.2084 9.17319C51.604 13.5807 58.8903 20.5755 62.8906 24.4898H19.7751C23.7753 20.5755 31.0616 13.5807 36.4572 9.17319ZM77.3335 76.7349H2.66669V27.7549H77.3335V76.7349Z" fill="url(#paint0_linear_16_2237)"/>
<path d="M6.6665 34.2856V70.2042C6.6665 71.1054 7.26253 71.8368 7.99977 71.8368H71.9998C72.7358 71.8368 73.3331 71.1054 73.3331 70.2042V34.2856C73.3331 33.3845 72.7358 32.6531 71.9998 32.6531H7.99993C7.26253 32.6531 6.6665 33.3845 6.6665 34.2856ZM9.33319 35.9184H70.6665V68.5716H9.33319V35.9184Z" fill="url(#paint1_linear_16_2237)"/>
<path d="M58.6661 47.347C58.6661 43.7453 56.2741 40.8163 53.3327 40.8163H49.3328C48.5968 40.8163 47.9995 41.5477 47.9995 42.4489V52.2449V62.0409C47.9995 62.9421 48.5968 63.6735 49.3328 63.6735H53.3327C56.2741 63.6735 58.6661 60.7445 58.6661 57.1428C58.6661 55.1934 57.9644 53.4423 56.8552 52.2449C57.9644 51.0474 58.6661 49.2962 58.6661 47.347ZM55.9994 57.1428C55.9994 58.9436 54.8034 60.4081 53.3327 60.4081H50.666V53.8775H53.3327C54.8034 53.8775 55.9994 55.342 55.9994 57.1428ZM50.666 50.6123V44.0816H53.3327C54.8034 44.0816 55.9994 45.5461 55.9994 47.347C55.9994 49.1478 54.8034 50.6123 53.3327 50.6123H50.666Z" fill="url(#paint2_linear_16_2237)"/>
<path d="M40.3059 40.8163H37.0259C34.9898 40.8163 33.3325 42.8457 33.3325 45.3388V59.151C33.3325 61.6441 34.9898 63.6735 37.0259 63.6735H40.3059C42.3419 63.6735 43.9993 61.6441 43.9993 59.151V45.3388C43.9993 42.8457 42.3419 40.8163 40.3059 40.8163ZM41.3326 59.151C41.3326 59.8448 40.8725 60.4081 40.3059 60.4081H37.0259C36.4592 60.4081 35.9992 59.8448 35.9992 59.151V45.3388C35.9992 44.6449 36.4592 44.0816 37.0259 44.0816H40.3059C40.8725 44.0816 41.3326 44.6449 41.3326 45.3388V59.151Z" fill="url(#paint3_linear_16_2237)"/>
<path d="M27.9997 40.8163C27.2637 40.8163 26.6664 41.5477 26.6664 42.4489V57.1428C26.6664 58.9436 25.4704 60.4081 23.9997 60.4081C22.529 60.4081 21.333 58.9436 21.333 57.1428C21.333 56.2416 20.7357 55.5102 19.9998 55.5102C19.2638 55.5102 18.6665 56.2416 18.6665 57.1428C18.6665 60.7445 21.0585 63.6735 23.9999 63.6735C26.9412 63.6735 29.3333 60.7445 29.3333 57.1428V42.4489C29.3329 41.5477 28.7356 40.8163 27.9997 40.8163Z" fill="url(#paint4_linear_16_2237)"/>
<defs>
<linearGradient id="paint0_linear_16_2237" x1="40" y1="0" x2="40" y2="80" gradientUnits="userSpaceOnUse">
<stop stop-color="#66FCF1"/>
<stop offset="1" stop-color="#5DE856"/>
</linearGradient>
<linearGradient id="paint1_linear_16_2237" x1="39.9998" y1="32.6531" x2="39.9998" y2="71.8368" gradientUnits="userSpaceOnUse">
<stop stop-color="#66FCF1"/>
<stop offset="1" stop-color="#5DE856"/>
</linearGradient>
<linearGradient id="paint2_linear_16_2237" x1="53.3328" y1="40.8163" x2="53.3328" y2="63.6735" gradientUnits="userSpaceOnUse">
<stop stop-color="#66FCF1"/>
<stop offset="1" stop-color="#5DE856"/>
</linearGradient>
<linearGradient id="paint3_linear_16_2237" x1="38.6659" y1="40.8163" x2="38.6659" y2="63.6735" gradientUnits="userSpaceOnUse">
<stop stop-color="#66FCF1"/>
<stop offset="1" stop-color="#5DE856"/>
</linearGradient>
<linearGradient id="paint4_linear_16_2237" x1="23.9999" y1="40.8163" x2="23.9999" y2="63.6735" gradientUnits="userSpaceOnUse">
<stop stop-color="#66FCF1"/>
<stop offset="1" stop-color="#5DE856"/>
</linearGradient>
</defs>
</svg>
