<svg width="80" height="80" viewBox="0 0 80 80" fill="none" xmlns="http://www.w3.org/2000/svg">
<path d="M11.7134 57.4327H12.0108C15.2941 57.4279 17.9546 54.2366 17.9586 50.2985V47.5873C17.9546 43.6492 15.2941 40.4571 12.0108 40.4531H11.7134C8.42953 40.4571 5.76894 43.6492 5.76562 47.5873V50.2985C5.76894 54.2366 8.42953 57.4279 11.7134 57.4327ZM8.14475 47.5873C8.14674 45.2241 9.74322 43.3092 11.7134 43.3068H12.0108C13.981 43.3092 15.5775 45.2241 15.5795 47.5873V50.2985C15.5775 52.6609 13.981 54.5758 12.0108 54.579H11.7134C9.74322 54.5758 8.14674 52.6609 8.14475 50.2985V47.5873Z" fill="url(#paint0_linear_16_2281)"/>
<path d="M17.7785 58.7695H16.5398C16.2537 58.7695 15.9769 58.8929 15.7605 59.1183L12.0478 62.9784L8.4811 59.135C8.2627 58.8993 7.97991 58.7695 7.68584 58.7695H6.28917C4.52209 58.7695 2.83599 59.6605 1.64444 61.2259C0.452887 62.7913 -0.134592 64.8854 0.0260523 66.9961V78.5693C0.0260523 79.3576 0.558434 79.9961 1.21561 79.9961L22.8508 79.993C23.5073 79.993 24.0403 79.3544 24.0403 78.5661V66.9961C24.201 64.8861 23.6135 62.7921 22.4219 61.2267C21.231 59.6613 19.5456 58.7695 17.7785 58.7695ZM21.6672 66.7844C21.6632 66.8321 21.6612 66.8799 21.6612 66.9285V77.1401L2.40517 77.1433V66.9285C2.40517 66.8799 2.40318 66.8321 2.3992 66.7844C2.28768 65.465 2.64747 64.1512 3.38829 63.1671C4.12977 62.1838 5.18325 61.6232 6.28917 61.6232H7.23046L11.2346 65.9388C11.2592 65.965 11.2844 65.9905 11.3103 66.0144C11.7584 66.4261 12.3857 66.403 12.8125 65.9595L16.9833 61.6232H17.7785C18.8838 61.6232 19.9373 62.1845 20.6787 63.1679C21.4196 64.1512 21.7787 65.465 21.6672 66.7844Z" fill="url(#paint1_linear_16_2281)"/>
<path d="M39.6797 40.4523C36.3965 40.457 33.7359 43.6483 33.7319 47.5865V50.2976C33.7359 54.2358 36.3965 57.427 39.6797 57.4318H39.9778C43.261 57.427 45.9216 54.2358 45.9256 50.2976V47.5865C45.9216 43.6483 43.261 40.457 39.9778 40.4523H39.6797ZM43.5465 47.5865V50.2976C43.5445 52.6608 41.948 54.5757 39.9778 54.5781H39.6797C37.7102 54.5757 36.1137 52.6608 36.1111 50.2976V47.5865C36.1137 45.2241 37.7102 43.3091 39.6797 43.3059H39.9778C41.948 43.3091 43.5445 45.2241 43.5465 47.5865Z" fill="url(#paint2_linear_16_2281)"/>
<path d="M45.7463 58.7695H44.507C44.2208 58.7695 43.944 58.8929 43.7276 59.1183L40.0149 62.9784L36.4489 59.135C36.2305 58.8993 35.947 58.7695 35.6536 58.7695H34.2563C32.4892 58.7687 30.8038 59.6605 29.6122 61.2259C28.4207 62.7913 27.8332 64.8854 27.9938 66.9962V78.5693C27.9938 79.3576 28.5262 79.9961 29.1834 79.9961L50.8179 79.993C51.475 79.993 52.0074 79.3544 52.0074 78.5661V66.9962C52.1681 64.8861 51.5813 62.7921 50.3897 61.2267C49.1988 59.6613 47.5134 58.7695 45.7463 58.7695ZM49.6343 66.7844C49.6303 66.8321 49.6283 66.8799 49.6283 66.9285V77.1401L30.3723 77.1433V66.9285C30.3723 66.8799 30.3703 66.8321 30.3663 66.7844C30.2555 65.465 30.6146 64.1512 31.3561 63.1679C32.0969 62.1845 33.151 61.6232 34.2563 61.6232H35.1969L39.2017 65.9388C39.2263 65.965 39.2515 65.9905 39.2774 66.0144C39.7255 66.4261 40.3528 66.403 40.7796 65.9595L44.9504 61.6232H45.7456C46.8509 61.6232 47.9044 62.1845 48.6452 63.1679C49.3867 64.1512 49.7458 65.465 49.6343 66.7844Z" fill="url(#paint3_linear_16_2281)"/>
<path d="M61.6992 47.5865V50.2976C61.7032 54.2358 64.3638 57.427 67.647 57.4318H67.9451C71.2283 57.427 73.8889 54.2358 73.8929 50.2976V47.5865C73.8889 43.6483 71.2283 40.457 67.9451 40.4523H67.647C64.3638 40.457 61.7032 43.6483 61.6992 47.5865ZM71.5138 47.5865V50.2976C71.5118 52.6608 69.9153 54.5757 67.9451 54.5781H67.647C65.6775 54.5757 64.081 52.6608 64.0783 50.2976V47.5865C64.081 45.2241 65.6775 43.3091 67.647 43.3059H67.9451C69.9153 43.3091 71.5118 45.2241 71.5138 47.5865Z" fill="url(#paint4_linear_16_2281)"/>
<path d="M73.7138 58.7695H72.4744C72.1883 58.7695 71.9115 58.8929 71.6958 59.1183L67.9824 62.9784L64.4157 59.135C64.1973 58.8993 63.9145 58.7695 63.6211 58.7695H62.2237C60.4567 58.7687 58.7706 59.6605 57.579 61.2259C56.3875 62.7913 55.8 64.8854 55.9606 66.9962V78.5693C55.9606 79.3576 56.4937 79.9961 57.1502 79.9961L78.7853 79.993C79.4425 79.993 79.9749 79.3544 79.9749 78.5661V66.9962C80.1355 64.8861 79.5481 62.7921 78.3572 61.2267C77.1656 59.6613 75.4802 58.7695 73.7138 58.7695ZM77.6017 66.7844C77.5978 66.8321 77.5958 66.8799 77.5958 66.9285V77.1401L58.3404 77.1433V66.9285C58.3404 66.8799 58.3378 66.8321 58.3338 66.7844C58.2229 65.465 58.582 64.1512 59.3235 63.1679C60.065 62.1845 61.1185 61.6232 62.2237 61.6232H63.165L67.1692 65.938C67.1957 65.9674 67.2243 65.9953 67.2542 66.0224C67.3385 66.098 67.4307 66.1601 67.5283 66.2071C67.9412 66.4038 68.4112 66.3082 68.7471 65.9595L72.9172 61.6232H73.7131C74.8177 61.6232 75.8712 62.1845 76.6127 63.1679C77.3535 64.1512 77.7126 65.465 77.6011 66.7844H77.6017Z" fill="url(#paint5_linear_16_2281)"/>
<path d="M32.1139 44.1835V41.4723C32.1099 37.5342 29.4493 34.3421 26.1661 34.3381H25.8687C22.5848 34.3421 19.9242 37.5342 19.9209 41.4723V44.1835C19.9242 48.1216 22.5848 51.3129 25.8687 51.3177H26.1661C29.4493 51.3129 32.1099 48.1216 32.1139 44.1835ZM29.7348 44.1835C29.7328 46.5459 28.1363 48.4608 26.1661 48.464H25.8687C23.8985 48.4608 22.302 46.5459 22.3 44.1835V41.4723C22.302 39.1091 23.8985 37.1942 25.8687 37.1918H26.1661C28.1363 37.1942 29.7328 39.1091 29.7348 41.4723V44.1835Z" fill="url(#paint6_linear_16_2281)"/>
<path d="M60.0812 44.1835V41.4723C60.0772 37.5342 57.4166 34.3421 54.1334 34.3381H53.836C50.5521 34.3421 47.8915 37.5342 47.8882 41.4723V44.1835C47.8915 48.1216 50.5521 51.3129 53.836 51.3177H54.1334C57.4166 51.3129 60.0772 48.1216 60.0812 44.1835ZM57.7021 44.1835C57.7001 46.5459 56.1036 48.4608 54.1334 48.464H53.836C51.8658 48.4608 50.2693 46.5459 50.2673 44.1835V41.4723C50.2693 39.1091 51.8658 37.1942 53.836 37.1918H54.1334C56.1036 37.1942 57.7001 39.1091 57.7021 41.4723V44.1835Z" fill="url(#paint7_linear_16_2281)"/>
<path d="M34.3546 9.44316H56.3183C56.9755 9.44316 57.5079 8.80458 57.5079 8.01632C57.5079 7.22885 56.9755 6.58948 56.3183 6.58948H34.3546C33.6974 6.58948 33.165 7.22885 33.165 8.01632C33.165 8.80458 33.6974 9.44316 34.3546 9.44316Z" fill="url(#paint8_linear_16_2281)"/>
<path d="M63.2566 14.4093C63.2566 13.621 62.7235 12.9824 62.067 12.9824H34.3546C33.6974 12.9824 33.165 13.621 33.165 14.4093C33.165 15.1967 33.6974 15.8361 34.3546 15.8361H62.0663C62.7235 15.8361 63.2566 15.1967 63.2566 14.4093Z" fill="url(#paint9_linear_16_2281)"/>
<path d="M16.1928 32.8643C16.5891 33.1079 17.0664 33.0657 17.4288 32.7544L22.9923 27.9723H57.3488C58.006 27.9723 58.5384 27.3329 58.5384 26.5454V22.4249H60.3433L65.9067 27.2063C66.2692 27.5176 66.7465 27.5598 67.1428 27.3154C67.5397 27.0709 67.7887 26.5812 67.7887 26.0462V1.42684C67.7887 0.638574 67.2563 0 66.5991 0H29.8216C29.1644 0 28.632 0.638574 28.632 1.42684V5.54811H16.7364C16.0793 5.54811 15.5469 6.18668 15.5469 6.97495V31.5943C15.5469 32.1294 15.7958 32.6198 16.1928 32.8643ZM31.0112 2.85368H65.4102V23.2681L61.4187 19.838C61.2162 19.6644 60.9739 19.5705 60.7256 19.5705H31.0112V2.85368ZM17.926 8.40179H28.632V20.9989C28.632 21.7864 29.1644 22.4257 29.8216 22.4257H56.1592V25.1186H22.6099C22.3616 25.1186 22.1193 25.2117 21.9169 25.3853L17.926 28.8171V8.40179Z" fill="url(#paint10_linear_16_2281)"/>
<defs>
<linearGradient id="paint0_linear_16_2281" x1="11.8621" y1="40.4531" x2="11.8621" y2="57.4327" gradientUnits="userSpaceOnUse">
<stop stop-color="#66FCF1"/>
<stop offset="1" stop-color="#5DE856"/>
</linearGradient>
<linearGradient id="paint1_linear_16_2281" x1="12.0332" y1="58.7695" x2="12.0332" y2="79.9961" gradientUnits="userSpaceOnUse">
<stop stop-color="#66FCF1"/>
<stop offset="1" stop-color="#5DE856"/>
</linearGradient>
<linearGradient id="paint2_linear_16_2281" x1="39.8288" y1="40.4523" x2="39.8288" y2="57.4318" gradientUnits="userSpaceOnUse">
<stop stop-color="#66FCF1"/>
<stop offset="1" stop-color="#5DE856"/>
</linearGradient>
<linearGradient id="paint3_linear_16_2281" x1="40.0006" y1="58.7695" x2="40.0006" y2="79.9961" gradientUnits="userSpaceOnUse">
<stop stop-color="#66FCF1"/>
<stop offset="1" stop-color="#5DE856"/>
</linearGradient>
<linearGradient id="paint4_linear_16_2281" x1="67.7961" y1="40.4523" x2="67.7961" y2="57.4318" gradientUnits="userSpaceOnUse">
<stop stop-color="#66FCF1"/>
<stop offset="1" stop-color="#5DE856"/>
</linearGradient>
<linearGradient id="paint5_linear_16_2281" x1="67.9678" y1="58.7695" x2="67.9678" y2="79.9961" gradientUnits="userSpaceOnUse">
<stop stop-color="#66FCF1"/>
<stop offset="1" stop-color="#5DE856"/>
</linearGradient>
<linearGradient id="paint6_linear_16_2281" x1="26.0174" y1="34.3381" x2="26.0174" y2="51.3177" gradientUnits="userSpaceOnUse">
<stop stop-color="#66FCF1"/>
<stop offset="1" stop-color="#5DE856"/>
</linearGradient>
<linearGradient id="paint7_linear_16_2281" x1="53.9847" y1="34.3381" x2="53.9847" y2="51.3177" gradientUnits="userSpaceOnUse">
<stop stop-color="#66FCF1"/>
<stop offset="1" stop-color="#5DE856"/>
</linearGradient>
<linearGradient id="paint8_linear_16_2281" x1="45.3365" y1="6.58948" x2="45.3365" y2="9.44316" gradientUnits="userSpaceOnUse">
<stop stop-color="#66FCF1"/>
<stop offset="1" stop-color="#5DE856"/>
</linearGradient>
<linearGradient id="paint9_linear_16_2281" x1="48.2108" y1="12.9824" x2="48.2108" y2="15.8361" gradientUnits="userSpaceOnUse">
<stop stop-color="#66FCF1"/>
<stop offset="1" stop-color="#5DE856"/>
</linearGradient>
<linearGradient id="paint10_linear_16_2281" x1="41.6678" y1="0" x2="41.6678" y2="33.0213" gradientUnits="userSpaceOnUse">
<stop stop-color="#66FCF1"/>
<stop offset="1" stop-color="#5DE856"/>
</linearGradient>
</defs>
</svg>
